<svg width="120" height="150" xmlns="http://www.w3.org/2000/svg" viewBox="0 0 200 200">
  <!-- Head -->
  <path d="M100,40 C70,40 50,80 60,120 C70,160 130,160 140,120 C150,80 130,40 100,40 Z" fill="#afe0bd" stroke="#000" stroke-width="2"/>

  <!-- Eyes -->
  <circle cx="80" cy="90" r="10" fill="#fff" stroke="#000" stroke-width="2"/>
  <circle cx="120" cy="90" r="10" fill="#fff" stroke="#000" stroke-width="2"/>
  <circle cx="80" cy="90" r="5" fill="#0f0"/>
  <circle cx="120" cy="90" r="5" fill="#0f0"/>

  <!-- Eyebrows -->
  <path d="M70 75 Q80 65 90 75" stroke="#000" stroke-width="3" fill="none"/>
  <path d="M110 75 Q120 65 130 75" stroke="#000" stroke-width="3" fill="none"/>

  <!-- Nose -->
  <path d="M100 85 Q95 105 100 105 Q105 105 100 85" fill="#ffe0bd" stroke="#000" stroke-width="2"/>

  <!-- Mouth -->
  <path d="M90 125 Q100 120 110 125" stroke="#000" stroke-width="3" fill="none"/>

  <!-- Serpents as Hair -->
  <path d="M70 60 Q50 50 70 40" fill="none" stroke="#39ff14" stroke-width="4"/>
  <circle cx="70" cy="40" r="5" fill="#39ff14" stroke="#000" stroke-width="2"/>
  <circle cx="70" cy="40" r="2" fill="#000"/>

  <path d="M130 60 Q150 50 130 40" fill="none" stroke="#39ff14" stroke-width="4"/>
  <circle cx="130" cy="40" r="5" fill="#39ff14" stroke="#000" stroke-width="2"/>
  <circle cx="130" cy="40" r="2" fill="#000"/>

  <path d="M60 80 Q40 70 60 60" fill="none" stroke="#39ff14" stroke-width="4"/>
  <circle cx="60" cy="60" r="5" fill="#39ff14" stroke="#000" stroke-width="2"/>
  <circle cx="60" cy="60" r="2" fill="#000"/>

  <path d="M140 80 Q160 70 140 60" fill="none" stroke="#39ff14" stroke-width="4"/>
  <circle cx="140" cy="60" r="5" fill="#39ff14" stroke="#000" stroke-width="2"/>
  <circle cx="140" cy="60" r="2" fill="#000"/>

  <path d="M50 100 Q30 90 50 80" fill="none" stroke="#39ff14" stroke-width="4"/>
  <circle cx="50" cy="80" r="5" fill="#39ff14" stroke="#000" stroke-width="2"/>
  <circle cx="50" cy="80" r="2" fill="#000"/>

  <path d="M150 100 Q170 90 150 80" fill="none" stroke="#39ff14" stroke-width="4"/>
  <circle cx="150" cy="80" r="5" fill="#39ff14" stroke="#000" stroke-width="2"/>
  <circle cx="150" cy="80" r="2" fill="#000"/>

  <path d="M70 140 Q50 130 70 120" fill="none" stroke="#39ff14" stroke-width="4"/>
  <circle cx="70" cy="120" r="5" fill="#39ff14" stroke="#000" stroke-width="2"/>
  <circle cx="70" cy="120" r="2" fill="#000"/>

  <path d="M130 140 Q150 130 130 120" fill="none" stroke="#39ff14" stroke-width="4"/>
  <circle cx="130" cy="120" r="5" fill="#39ff14" stroke="#000" stroke-width="2"/>
  <circle cx="130" cy="120" r="2" fill="#000"/>

  <path d="M100 40 Q90 20 110 20 Q130 20 120 40" fill="none" stroke="#39ff14" stroke-width="4"/>
  <circle cx="120" cy="40" r="5" fill="#39ff14" stroke="#000" stroke-width="2"/>
  <circle cx="120" cy="40" r="2" fill="#000"/>

  <path d="M100 40 Q110 20 90 20 Q70 20 80 40" fill="none" stroke="#39ff14" stroke-width="4"/>
  <circle cx="80" cy="40" r="5" fill="#39ff14" stroke="#000" stroke-width="2"/>
  <circle cx="80" cy="40" r="2" fill="#000"/>

  <path d="M110 50 Q130 30 110 10" fill="none" stroke="#39ff14" stroke-width="4"/>
  <circle cx="110" cy="10" r="5" fill="#39ff14" stroke="#000" stroke-width="2"/>
  <circle cx="110" cy="10" r="2" fill="#000"/>

  <path d="M90 50 Q70 30 90 10" fill="none" stroke="#39ff14" stroke-width="4"/>
  <circle cx="90" cy="10" r="5" fill="#39ff14" stroke="#000" stroke-width="2"/>
  <circle cx="90" cy="10" r="2" fill="#000"/>
</svg>
